<mxfile host="Electron" modified="2024-03-13T08:59:10.014Z" agent="Mozilla/5.0 (Windows NT 10.0; WOW64) AppleWebKit/537.36 (KHTML, like Gecko) draw.io/22.1.2 Chrome/114.0.5735.289 Electron/25.9.4 Safari/537.36" etag="w069Qxo7P22-tH5YV0l5" version="22.1.2" type="device">
  <diagram id="C5RBs43oDa-KdzZeNtuy" name="Page-1">
    <mxGraphModel dx="472" dy="828" grid="1" gridSize="10" guides="1" tooltips="1" connect="1" arrows="1" fold="1" page="1" pageScale="1" pageWidth="827" pageHeight="1169" math="0" shadow="0">
      <root>
        <mxCell id="WIyWlLk6GJQsqaUBKTNV-0" />
        <mxCell id="WIyWlLk6GJQsqaUBKTNV-1" parent="WIyWlLk6GJQsqaUBKTNV-0" />
        <mxCell id="SE-WkxbtNJu1NWRCmD9F-0" value="Orario" style="swimlane;fontStyle=1;align=center;verticalAlign=top;childLayout=stackLayout;horizontal=1;startSize=26;horizontalStack=0;resizeParent=1;resizeParentMax=0;resizeLast=0;collapsible=1;marginBottom=0;whiteSpace=wrap;html=1;" parent="WIyWlLk6GJQsqaUBKTNV-1" vertex="1">
          <mxGeometry x="170" y="380" width="360" height="290" as="geometry" />
        </mxCell>
        <mxCell id="SE-WkxbtNJu1NWRCmD9F-1" value="- s: int&lt;br&gt;- m: int&lt;br&gt;- o: int" style="text;strokeColor=none;fillColor=none;align=left;verticalAlign=top;spacingLeft=4;spacingRight=4;overflow=hidden;rotatable=0;points=[[0,0.5],[1,0.5]];portConstraint=eastwest;whiteSpace=wrap;html=1;" parent="SE-WkxbtNJu1NWRCmD9F-0" vertex="1">
          <mxGeometry y="26" width="360" height="54" as="geometry" />
        </mxCell>
        <mxCell id="SE-WkxbtNJu1NWRCmD9F-2" value="" style="line;strokeWidth=1;fillColor=none;align=left;verticalAlign=middle;spacingTop=-1;spacingLeft=3;spacingRight=3;rotatable=0;labelPosition=right;points=[];portConstraint=eastwest;strokeColor=inherit;" parent="SE-WkxbtNJu1NWRCmD9F-0" vertex="1">
          <mxGeometry y="80" width="360" height="10" as="geometry" />
        </mxCell>
        <mxCell id="SE-WkxbtNJu1NWRCmD9F-3" value="+ Orario()&lt;br&gt;+ Orario(s: int, m: int, o: int)&lt;br&gt;+ getS: int&lt;br&gt;+ setS(s: int): void&lt;br&gt;+ getM: int&lt;br style=&quot;border-color: var(--border-color);&quot;&gt;+ setM(m: int): void&lt;br&gt;+ getO: int&lt;br style=&quot;border-color: var(--border-color);&quot;&gt;+ setO(o: int): void&lt;br&gt;+ secondiEquivalenti(s: int, m: int, o: int): int&lt;br&gt;+ minutiEquivalenti(): int&lt;br&gt;+ oreEquivalenti(): int&lt;br&gt;+ differenzaSecondi(sec: int, min: int, ore: int): int&lt;br&gt;+ info(): String" style="text;strokeColor=none;fillColor=none;align=left;verticalAlign=top;spacingLeft=4;spacingRight=4;overflow=hidden;rotatable=0;points=[[0,0.5],[1,0.5]];portConstraint=eastwest;whiteSpace=wrap;html=1;" parent="SE-WkxbtNJu1NWRCmD9F-0" vertex="1">
          <mxGeometry y="90" width="360" height="200" as="geometry" />
        </mxCell>
      </root>
    </mxGraphModel>
  </diagram>
</mxfile>
